<?xml version="1.0" encoding="UTF-8"?>
<svg width="240px" height="94px" viewBox="0 0 240 94" version="1.1" xmlns="http://www.w3.org/2000/svg" xmlns:xlink="http://www.w3.org/1999/xlink">
    <!-- Generator: Sketch 43.1 (39012) - http://www.bohemiancoding.com/sketch -->
    <title>stride-white</title>
    <desc>Created with Sketch.</desc>
    <defs></defs>
    <g id="v-0.1" stroke="none" stroke-width="1" fill="none" fill-rule="evenodd">
        <g id="stride-white" fill="#FFFFFF">
            <g id="stride" transform="translate(0.000000, 30.000000)">
                <path d="M239.761474,6.20981184 L239.761474,0.116289721 L212.14416,0.116289721 C211.70376,0.116289721 211.294615,0.19252934 210.916724,0.350655956 C210.538832,0.505958884 210.214926,0.726206671 209.936479,1.00575194 C209.663716,1.2881209 209.447778,1.61566889 209.288666,1.99121961 C209.132395,2.36677032 209.052839,2.76491055 209.052839,3.1856403 L209.052839,25.1737111 C209.052839,26.7493299 209.339809,28.0821114 209.91659,29.1692319 C210.487689,30.2563523 211.203694,31.1373435 212.058921,31.815029 C212.91699,32.4983619 213.848932,32.9840365 214.854748,33.2805239 C215.860564,33.5770113 216.789665,33.7266668 217.63921,33.7266668 L239.761474,33.7266668 L239.761474,27.6331447 L217.68467,27.6331447 C216.869221,27.6331447 216.246979,27.4241917 215.823627,26.9978146 C215.397434,26.5799085 215.187179,25.9671679 215.187179,25.1737111 L215.187179,19.9922407 L237.002584,19.9922407 L237.002584,13.8507159 L215.187179,13.8507159 L215.187179,6.20981184 L239.761474,6.20981184 Z" id="Fill-13"></path>
                <path d="M188.548972,14.1788286 C188.548972,12.9900553 188.355765,11.9029348 187.972191,10.9231145 C187.585776,9.93482314 187.040249,9.09618734 186.332768,8.4015597 C185.625287,7.70693206 184.778584,7.16760735 183.795498,6.78358557 C182.812413,6.39956378 181.7242,6.21037658 180.530859,6.21037658 L167.014855,6.21037658 L167.014855,27.6337095 L180.530859,27.6337095 C181.7242,27.6337095 182.812413,27.4416986 183.795498,27.0605005 C184.778584,26.6764787 185.625287,26.1343303 186.332768,25.4397027 C187.040249,24.745075 187.585776,23.9092629 187.972191,22.93509 C188.355765,21.9580934 188.548972,20.8653255 188.548972,19.6624338 L188.548972,14.1788286 Z M194.680471,19.6624338 C194.680471,21.7096087 194.322468,23.5930097 193.606464,25.3098129 C192.893301,27.0322636 191.907374,28.5118769 190.648684,29.7543003 C189.389993,30.9967238 187.898317,31.968073 186.167973,32.6739954 C184.437629,33.3742704 182.559538,33.7272316 180.530859,33.7272316 L163.974677,33.7272316 C163.534277,33.7272316 163.125132,33.650992 162.747241,33.4928654 C162.36935,33.3347387 162.042602,33.1201383 161.766997,32.8462404 C161.494233,32.5751662 161.275454,32.2476182 161.119183,31.8748912 C160.962912,31.4993405 160.883356,31.0927292 160.883356,30.6550573 L160.883356,3.18338135 C160.883356,2.76547529 160.962912,2.36451137 161.119183,1.99178434 C161.275454,1.61623363 161.494233,1.28868564 161.766997,1.00631668 C162.042602,0.72394772 162.36935,0.506523622 162.747241,0.351220694 C163.125132,0.193094078 163.534277,0.116854459 163.974677,0.116854459 L180.530859,0.116854459 C182.559538,0.116854459 184.437629,0.466991967 186.167973,1.17291436 C187.898317,1.87318938 189.389993,2.8445386 190.648684,4.0897857 C191.907374,5.32938543 192.893301,6.81746984 193.606464,8.54274418 C194.322468,10.2680185 194.680471,12.1457721 194.680471,14.1788286 L194.680471,19.6624338 Z" id="Fill-12"></path>
                <polygon id="Fill-10" points="139.129323 33.7269492 145.260821 33.7269492 145.260821 0.11657209 139.129323 0.11657209"></polygon>
                <path d="M96.759192,16.6413683 L96.759192,6.21065895 L116.994841,6.21065895 C117.122699,6.21065895 117.259081,6.21913002 117.406828,6.23324847 C117.557416,6.24736692 117.699481,6.30101702 117.833021,6.38572771 C117.966562,6.47043839 118.074531,6.6031518 118.16261,6.78386794 C118.247849,6.96176038 118.29331,7.22436351 118.29331,7.56885364 L118.29331,11.4118952 C118.29331,12.2109993 118.165452,12.9169217 117.915418,13.532486 C117.662544,14.1508741 117.304542,14.678904 116.841412,15.1165759 C116.378282,15.5542478 115.827072,15.9015616 115.190624,16.1585174 C114.554175,16.4182968 113.849536,16.5792471 113.079547,16.6413683 L96.759192,16.6413683 Z M113.079547,22.7348904 C113.83533,22.7348904 114.639414,22.647356 115.497483,22.475111 C116.35271,22.3056896 117.202255,22.0261443 118.046118,21.6421225 C118.887139,21.2609244 119.691223,20.7724261 120.461212,20.1794513 C121.231201,19.5864765 121.91311,18.8692594 122.501256,18.0334472 C123.092244,17.1976351 123.561057,16.2319333 123.904852,15.1419891 C124.251489,14.0463975 124.424808,12.8039741 124.424808,11.4118952 L124.424808,7.52367461 C124.424808,6.77257318 124.294109,5.96782165 124.035552,5.10942001 C123.774153,4.24819469 123.350801,3.44626685 122.762655,2.70363649 C122.171667,1.96382982 121.404519,1.3454418 120.461212,0.854119809 C119.517905,0.359974132 118.364342,0.114313138 116.994841,0.114313138 L93.7161731,0.114313138 C93.2757736,0.114313138 92.8666282,0.193376447 92.4915782,0.348679374 C92.113687,0.50680599 91.786939,0.724230088 91.5113341,1.00659905 C91.2357292,1.28896801 91.0197913,1.616516 90.8635205,1.99206671 C90.7072497,2.36479374 90.6276937,2.76575766 90.6276937,3.18366372 L90.6276937,33.727514 L96.759192,33.727514 L96.759192,22.7348904 L103.623743,22.7348904 L116.406695,33.727514 L125.88523,33.727514 L113.079547,22.7348904 Z" id="Fill-7"></path>
                <polygon id="Fill-4" points="77.6205638 6.20981184 64.1074007 6.20981184 64.1074007 33.7266668 57.973061 33.7266668 57.973061 6.20981184 44.4371676 6.20981184 44.4371676 0.116289721 77.6205638 0.116289721"></polygon>
                <path d="M33.7971143,23.835847 C33.7971143,25.0387387 33.6436848,26.1230355 33.3368257,27.0802663 C33.0299667,28.0431445 32.6265039,28.8902513 32.123596,29.6244106 C31.6178468,30.3613936 31.0297003,30.985429 30.3534739,31.4993405 C29.6772475,32.0160757 28.9782908,32.4368054 28.2537625,32.7671771 C27.5320755,33.0919014 26.796182,33.3347387 26.0489234,33.4928654 C25.3016648,33.650992 24.5998668,33.7272316 23.9378468,33.7272316 L0.284128746,33.7272316 L0.284128746,27.6337095 L23.9378468,27.6337095 C25.1169811,27.6337095 26.034717,27.2892193 26.6882131,26.6002391 C27.3388679,25.9140825 27.665616,24.990736 27.665616,23.835847 C27.665616,23.2739327 27.5803774,22.7571975 27.4042175,22.2884651 C27.230899,21.8197326 26.9865483,21.415945 26.6626415,21.0714549 C26.3387347,20.724141 25.9466371,20.4615379 25.4835072,20.2723507 C25.0203774,20.0859872 24.503263,19.9928054 23.9378468,19.9928054 L9.83369589,19.9928054 C8.84492786,19.9928054 7.77376249,19.814913 6.62588235,19.4647755 C5.48084351,19.1118143 4.41536071,18.5470764 3.43227525,17.7677381 C2.44918979,16.9827523 1.630899,15.9605767 0.980244173,14.6955638 C0.326748058,13.4277272 0,11.883169 0,10.0534181 C0,8.22649095 0.326748058,6.68193274 0.980244173,5.42256719 C1.630899,4.16602532 2.44918979,3.14384969 3.43227525,2.3560403 C4.41536071,1.56540722 5.48084351,0.99502192 6.62588235,0.642060722 C7.77376249,0.291923213 8.84492786,0.116854459 9.83369589,0.116854459 L30.7086349,0.116854459 L30.7086349,6.21037658 L9.83369589,6.21037658 C8.67160932,6.21037658 7.76239734,6.56051409 7.11174251,7.26643649 C6.45824639,7.9667115 6.13149834,8.89852907 6.13149834,10.0534181 C6.13149834,11.2252493 6.45824639,12.1514195 7.11174251,12.8319287 C7.76239734,13.5124378 8.67160932,13.8512806 9.83369589,13.8512806 L23.9378468,13.8512806 L23.9861487,13.8512806 C24.6453274,13.8682227 25.3442841,13.9557571 26.0858602,14.1223548 C26.8245949,14.2833051 27.5576471,14.5374372 28.2906992,14.8819273 C29.0209101,15.2264174 29.7170255,15.6584419 30.3762042,16.1836482 C31.0382242,16.7088545 31.6235294,17.3357135 32.1349612,18.0698728 C32.6463929,18.8040321 33.0498557,19.6483153 33.3481909,20.5998987 C33.6465261,21.5543058 33.7971143,22.6329552 33.7971143,23.835847" id="Fill-1"></path>
            </g>
        </g>
    </g>
</svg>