<svg width="360" height="100" viewBox="0 0 360 100" xmlns="http://www.w3.org/2000/svg"><title>Artboard 3 Copy 7</title><g fill="none" fill-rule="evenodd"><path d="M0 0h94v100H0z"/><g fill="#F7CA18"><path d="M37.095 37.712c-2.318-3.43-5.308-5.438-8.648-5.438-8.995 0-13.605 7.67-13.605 24.826 0 17.157 4.61 24.827 13.605 24.827 3.94 0 7.363-2.774 9.799-7.362l-4.367-2.335c-1.663 3.132-3.636 4.731-5.432 4.731-5.598 0-8.658-5.09-8.658-19.86s3.06-19.862 8.658-19.862c1.478 0 3.075 1.072 4.553 3.26l4.095-2.787z"/><path d="M67.846 72.259c-.817.647-1.78 1.3-2.876 1.911-3.132 1.747-6.671 2.791-10.549 2.791-4.06 0-7.982-.903-11.549-2.437-2.468-1.062-4.622-2.408-5.254-3.042-1.098-1.102-2.986-7.164-2.986-14.382 0-8.06 1.002-13.632 1.749-14.381C41.78 37.3 47 29.442 47 23.585c0-.689-.012-1.282-.04-2.18-.116-3.792-.524-3.277 4.157-4.06 1.484-.249 2.448 1.11 2.857 4.663.37 3.217-.03 7.573-.663 9.481-.08.24-.167.488-.262.742a32.97 32.97 0 0 1-1.132 2.638 49.021 49.021 0 0 1-2.076 3.878c-1.766 3.077.313 6.059 3.732 5.462a36.183 36.183 0 0 1 2.262-.388c1.608-.23 3.21-.37 4.679-.375 2.412 0 3.7.012 5.225.064 1.711.058 3.136.161 4.22.315a9.398 9.398 0 0 1 1.307.261c.116.035.124.026.124.026.922.94 1.064 2.65-.831 11.208-1.103 4.98-1.814 9.38-2.21 13.158a65.457 65.457 0 0 0-.29 3.61l-.213.17zM56.38 37.014a37.851 37.851 0 0 0 1.303-3.04c.116-.31.223-.616.323-.915.869-2.616 1.334-7.701.883-11.62-.688-5.99-3.43-9.854-8.584-8.992-7.156 1.197-8.48 2.866-8.289 9.11.026.852.038 1.401.038 2.028 0 4.074-4.675 11.11-9.17 15.623-2.041 2.048-3.199 8.482-3.199 17.892 0 8.419 2.276 15.726 4.435 17.893 3.24 3.25 11.801 6.934 20.302 6.934 4.78 0 9.126-1.283 12.951-3.416 2.307-1.286 3.952-2.59 4.877-3.518l.725-.727v-1.029c0-.151.008-.492.035-1.017.046-.901.13-1.977.26-3.223.377-3.592 1.058-7.805 2.12-12.6 2.227-10.06 1.957-13.315-.666-15.948l-.166-.152c-1.198-1.217-3.778-1.583-8.65-1.75-1.599-.054-2.926-.066-5.302-.066a39.095 39.095 0 0 0-5.154.38c.316-.6.628-1.219.928-1.847z"/></g><path d="M145.04 51.48c0-13.608-9.72-24.048-24.624-24.048H108.32a4.333 4.333 0 0 0-4.32 4.32v39.384a4.333 4.333 0 0 0 4.32 4.32h12.096c14.904 0 24.624-10.296 24.624-23.976zm-6.192 0c0 10.296-6.768 18.648-18.432 18.648h-10.44V32.76h10.44c11.88 0 18.432 8.352 18.432 18.72zm47.736 6.552c0-10.08-6.624-18.216-17.208-18.216s-17.208 8.136-17.208 18.216c0 10.08 6.624 18.288 17.208 18.288s17.208-8.208 17.208-18.288zm-5.688 0c0 7.128-4.104 13.464-11.52 13.464-7.416 0-11.592-6.336-11.592-13.464 0-7.056 4.176-13.392 11.592-13.392s11.52 6.336 11.52 13.392zm61.848 15.192V50.328c0-6.984-3.384-10.512-9.72-10.512-5.04 0-9.72 3.312-11.664 6.48-1.008-3.6-4.032-6.48-9.36-6.48-5.112 0-9.792 3.672-11.232 5.904v-2.88c0-1.368-1.224-2.592-2.592-2.592-1.584 0-2.808 1.224-2.808 2.592v30.384c0 1.44 1.224 2.664 2.664 2.664 1.512 0 2.736-1.224 2.736-2.664V50.04c1.872-2.808 5.616-5.4 9.144-5.4 4.536 0 6.408 2.808 6.408 7.2v21.384c0 1.44 1.224 2.664 2.664 2.664 1.512 0 2.736-1.224 2.736-2.664V49.968c1.8-2.736 5.616-5.328 9.216-5.328 4.464 0 6.408 2.808 6.408 7.2v21.384c0 1.44 1.224 2.664 2.664 2.664 1.512 0 2.736-1.224 2.736-2.664zm16.2 0V29.592c0-1.368-1.224-2.592-2.592-2.592-1.584 0-2.808 1.224-2.808 2.592v43.632c0 1.44 1.224 2.664 2.664 2.664 1.512 0 2.736-1.224 2.736-2.664zm13.464-44.784c-1.944 0-3.6 1.656-3.6 3.672s1.656 3.6 3.6 3.6c2.016 0 3.672-1.584 3.672-3.6a3.687 3.687 0 0 0-3.672-3.672zm2.736 44.784V42.84c0-1.368-1.224-2.592-2.592-2.592-1.584 0-2.808 1.224-2.808 2.592v30.384c0 1.44 1.224 2.664 2.664 2.664 1.512 0 2.736-1.224 2.736-2.664zm38.808 0c0-.576-.216-1.152-.576-1.584l-12.312-15.192 11.808-12.096a2.234 2.234 0 0 0 .648-1.584c0-1.368-1.224-2.592-2.52-2.592-.576 0-1.224.288-1.656.72l-18 18.288V29.592c0-1.368-1.224-2.592-2.592-2.592-1.584 0-2.808 1.224-2.808 2.592v43.632c0 1.44 1.224 2.664 2.664 2.664 1.512 0 2.736-1.224 2.736-2.664V65.52l5.76-5.688 12.096 15.12a2.661 2.661 0 0 0 2.088 1.008c1.656 0 2.664-1.512 2.664-2.736zm40.536-16.344c0-1.224-.288-2.52-.504-3.6-1.8-7.992-7.488-13.464-16.128-13.464-9.936 0-17.136 8.136-17.136 18.216 0 10.872 7.416 18.288 17.712 18.288 4.248 0 13.248-2.088 13.248-5.832 0-1.368-1.224-2.232-2.16-2.232-.432 0-.864.144-1.224.36a15.083 15.083 0 0 1-9.36 3.24c-7.488 0-12.096-5.472-12.528-12.024h25.128c1.656 0 2.952-1.368 2.952-2.952zm-5.256-1.008h-22.824c.288-5.328 3.96-11.592 11.376-11.592 7.92 0 11.376 6.408 11.448 11.592z" fill="#000"/></g></svg>